HIERARCHY
ROOT Hips
{
	OFFSET -3.958830 18.904000 13.208200
	CHANNELS 6 Xposition Yposition Zposition Zrotation Yrotation Xrotation 
	JOINT LHipJoint
	{
		OFFSET 0.000000 0.000000 0.000000
		CHANNELS 3 Zrotation Yrotation Xrotation
		JOINT LeftUpLeg
		{
			OFFSET 1.800000 -1.400000 0.085000
			CHANNELS 3 Zrotation Yrotation Xrotation
			JOINT LeftLeg
			{
				OFFSET 2.215000 -6.000000 0.000000
				CHANNELS 3 Zrotation Yrotation Xrotation
				JOINT LeftFoot
				{
					OFFSET 2.500000 -6.900000 0.000000
					CHANNELS 3 Zrotation Yrotation Xrotation
					JOINT LeftToeBase
					{
						OFFSET 0.200000 -0.500000 1.950000
						CHANNELS 3 Zrotation Yrotation Xrotation
						End Site
						{
							OFFSET 0.000000 0.000000 0.000000
						}
					}
				}
			}
		}
	}
	JOINT RHipJoint
	{
		OFFSET 0.000000 0.000000 0.000000
		CHANNELS 3 Zrotation Yrotation Xrotation
		JOINT RightUpLeg
		{
			OFFSET -1.800000 -1.400000 0.085000
			CHANNELS 3 Zrotation Yrotation Xrotation
			JOINT RightLeg
			{
				OFFSET -2.215000 -6.000000 0.000000
				CHANNELS 3 Zrotation Yrotation Xrotation
				JOINT RightFoot
				{
					OFFSET -2.500000 -6.900000 0.000000
					CHANNELS 3 Zrotation Yrotation Xrotation
					JOINT RightToeBase
					{
						OFFSET -0.200000 -0.500000 1.950000
						CHANNELS 3 Zrotation Yrotation Xrotation
						End Site
						{
							OFFSET 0.000000 0.000000 0.000000
						}
					}
				}
			}
		}
	}
	JOINT LowerBack
	{
		OFFSET 0.000000 0.000000 0.000000
		CHANNELS 3 Zrotation Yrotation Xrotation
		JOINT Spine
		{
			OFFSET -0.087000 1.940000 -0.288900
			CHANNELS 3 Zrotation Yrotation Xrotation
			JOINT Spine1
			{
				OFFSET 0.000000 1.950000 0.060000
				CHANNELS 3 Zrotation Yrotation Xrotation
				JOINT Neck
				{
					OFFSET 0.000000 0.000000 0.000000
					CHANNELS 3 Zrotation Yrotation Xrotation
					JOINT Neck1
					{
						OFFSET 0.000000 1.600000 0.340000
						CHANNELS 3 Zrotation Yrotation Xrotation
						JOINT Head
						{
							OFFSET 0.000000 1.667000 -0.240000
							CHANNELS 3 Zrotation Yrotation Xrotation
							End Site
							{
								OFFSET 0.000000 0.000000 0.000000
							}
						}
					}
				}
				JOINT LeftShoulder
				{
					OFFSET 0.000000 0.000000 0.000000
					CHANNELS 3 Zrotation Yrotation Xrotation
					JOINT LeftArm
					{
						OFFSET 2.700000 1.550000 -0.730000
						CHANNELS 3 Zrotation Yrotation Xrotation
						JOINT LeftForeArm
						{
							OFFSET 5.450000 0.000000 0.000000
							CHANNELS 3 Zrotation Yrotation Xrotation
							JOINT LeftHand
							{
								OFFSET 3.450000 0.000000 0.000000
								CHANNELS 3 Zrotation Yrotation Xrotation
								JOINT LeftHandIndex1
								{
									OFFSET 0.750000 0.000000 0.000000
									CHANNELS 3 Zrotation Yrotation Xrotation
									End Site
									{
										OFFSET 0.000000 0.000000 0.000000
									}
								}
							}
						}
					}
				}
				JOINT RightShoulder
				{
					OFFSET 0.000000 0.000000 0.000000
					CHANNELS 3 Zrotation Yrotation Xrotation
					JOINT RightArm
					{
						OFFSET -2.700000 1.550000 -0.730000
						CHANNELS 3 Zrotation Yrotation Xrotation
						JOINT RightForeArm
						{
							OFFSET -5.450000 0.000000 0.000000
							CHANNELS 3 Zrotation Yrotation Xrotation
							JOINT RightHand
							{
								OFFSET -3.450000 0.000000 0.000000
								CHANNELS 3 Zrotation Yrotation Xrotation
								JOINT RightHandIndex1
								{
									OFFSET -0.750000 0.000000 0.000000
									CHANNELS 3 Zrotation Yrotation Xrotation
									End Site
									{
										OFFSET 0.000000 0.000000 0.000000
									}
								}
							}
						}
					}
				}
			}
		}
	}
}
MOTION
Frames: 4
Frame Time: 0.016667
-21.115110 16.081010 -11.702720 -7.773058 28.848814 -20.698683 -15.003909 13.487865 2.737526 5.105786 3.301028 -25.617124 -5.526023 12.674776 39.225669 0.116920 7.214804 1.821483 0.385340 0.386730 0.417590 18.050717 -11.506912 3.381376 -22.064203 2.523303 19.525007 11.694012 -8.394073 9.291076 -1.393020 -6.599602 1.923054 0.123140 0.008760 0.019850 -4.610247 -0.552477 -8.252223 17.886351 -3.806965 42.306597 -14.356932 17.162423 -3.880452 -6.882380 -7.863536 -27.820506 -15.611261 10.601697 56.113982 11.516140 8.125680 -23.747420 8.439562 -24.421882 4.808572 48.392320 3.713151 -9.973411 8.910886 17.914226 -1.838630 -4.803856 1.002695 0.862330 -0.348530 0.460280 -0.014390 10.838248 36.913840 20.989524 14.899973 25.156168 -5.816252 -8.914004 29.264089 -1.486968 2.157674 -0.899328 -0.180280 0.501440 0.002810 -0.092500 
-20.761620 16.191570 -11.600250 -8.554939 28.226348 -15.619177 -15.249275 13.981568 2.863948 1.980524 2.935034 -28.632949 -3.721099 11.852343 38.441824 0.021631 6.892715 1.919825 0.266160 0.235190 0.292880 17.813685 -10.434854 4.100075 -19.051922 2.968105 19.785297 9.260836 -5.607330 -5.033107 -1.442371 -6.156852 2.116646 0.003110 0.145930 0.138700 -3.686895 -2.924115 -8.515601 20.605848 0.093841 33.809804 -12.516538 18.878893 -7.876397 -5.289321 -7.307604 -29.233896 -19.091654 14.705761 65.857659 12.507330 9.110110 -17.438630 3.369657 -25.823188 4.804185 47.609201 -3.442584 -8.895755 10.630364 17.233755 -1.514087 -4.691010 1.244074 0.886480 -0.241790 0.450840 -0.025270 13.661083 36.591651 20.495073 18.603757 23.929582 -2.194102 -7.081629 30.530498 -0.547802 2.141525 -0.764067 -0.168030 0.493650 0.138310 -0.062690 
-20.462990 16.330800 -11.579460 -9.449946 29.293361 -17.188776 -15.356954 13.965307 2.646351 1.071160 3.201508 -25.656930 -4.267380 12.872297 40.722850 0.332167 7.171764 1.798892 0.643940 0.723610 0.544000 17.846562 -9.637632 4.781573 -15.398185 3.917941 26.975520 4.429958 -3.731516 -16.357565 -1.910744 -6.594991 1.962305 0.198900 -0.140600 0.148760 -3.451565 -3.827989 -8.710823 24.096494 -1.868924 32.253717 -14.373887 18.055816 -3.920115 -4.037288 -6.681073 -29.594226 -17.888387 14.506242 71.367540 9.919530 9.979480 -19.774690 3.592997 -25.421962 6.109334 47.897697 0.755668 -7.494396 8.676865 15.324369 -1.585783 -4.439550 1.347735 0.847840 -0.387400 0.668040 0.107120 9.763366 38.091941 18.766628 15.584904 27.833129 0.544387 -5.413185 28.796976 0.214963 2.256026 -0.867240 0.053790 0.379990 -0.179290 -0.029080 
-20.163980 16.426690 -11.526950 -9.565726 23.036040 -16.245862 -15.262901 13.925263 2.267054 2.343316 5.607205 -23.106479 -5.961182 14.370934 38.900559 0.512001 7.124747 1.809943 0.691980 0.846660 0.523060 17.969318 -9.474307 5.196433 -15.071646 6.808604 27.029021 1.606663 -2.702181 -20.167609 -1.980972 -6.651349 1.976862 0.207820 -0.178670 0.186700 -3.515149 -3.594114 -8.814035 28.870931 0.664575 29.141603 -15.366468 19.845226 2.938758 -2.869499 -6.189982 -30.102446 -16.157096 12.855661 73.688843 8.045330 8.226200 -19.214680 5.785403 -23.727501 6.527444 46.276143 4.175604 -6.505240 9.007789 15.848504 -1.120792 -4.453937 1.433415 0.747760 -0.380680 0.714810 0.156190 4.797744 38.878424 18.714460 11.910591 29.201975 -2.018092 -7.650907 31.999427 -0.617905 2.210995 -1.015037 0.177280 0.323770 -0.240260 0.049920 
